<svg id="Badge_Art" data-name="Badge Art" xmlns="http://www.w3.org/2000/svg" viewBox="0 0 1140 1140"><defs><style>.cls-1{fill:#d1f0ff;}.cls-2{fill:#ebf8ff;}.cls-3{fill:#81bdde;}.cls-4{fill:#b0e5ff;}.cls-5{fill:#00c0d1;}.cls-6{fill:#00e6e6;}.cls-7{fill:#9df2f2;}.cls-8{fill:#009cbf;}.cls-20,.cls-9{fill:#fff;}.cls-9{opacity:0.51;}.cls-10{fill:#fabe2c;}.cls-11{fill:#00b300;}.cls-12{fill:#383e42;}.cls-13{fill:#ff6175;}.cls-14{fill:red;}.cls-15{fill:#b35324;}.cls-16{fill:#99341f;}.cls-17{fill:#fff7e6;}.cls-18{fill:#ffccb3;}.cls-19{fill:#222629;}</style></defs><g id="Layer_186" data-name="Layer 186"><g id="Outline_Corner_1" data-name="Outline Corner 1"><path class="cls-1" d="M1017.68,430H982.32l-13.66,13.66L1000,475l31.34-31.34Z" transform="translate(-430 -430)"/></g><g id="Outline_Corner_2" data-name="Outline Corner 2"><path class="cls-2" d="M1556.34,968.66,1525,1000l31.34,31.34,13.66-13.66V982.32Z" transform="translate(-430 -430)"/></g><g id="Outline_Corner_3" data-name="Outline Corner 3"><path class="cls-3" d="M1000,1525l-31.34,31.34L982.32,1570h35.36l13.66-13.66Z" transform="translate(-430 -430)"/></g><g id="Outline_Corner_4" data-name="Outline Corner 4"><path class="cls-4" d="M443.66,968.66,430,982.32v35.36l13.66,13.66L475,1000Z" transform="translate(-430 -430)"/></g><g id="Outline_1" data-name="Outline 1"><path class="cls-5" d="M1031.34,1556.34l525-525L1525,1000l-525,525Z" transform="translate(-430 -430)"/></g><g id="Outline_3" data-name="Outline 3"><path class="cls-6" d="M968.66,443.66l-525,525L475,1000l525-525Z" transform="translate(-430 -430)"/></g><g id="Outline_2" data-name="Outline 2"><path class="cls-7" d="M1031.34,443.66l525,525L1525,1000,1000,475Z" transform="translate(-430 -430)"/></g><g id="Outline_4" data-name="Outline 4"><path class="cls-8" d="M968.66,1556.34l-525-525L475,1000l525,525Z" transform="translate(-430 -430)"/></g><g id="Inline"><rect class="cls-9" x="628.77" y="628.77" width="742.46" height="742.46" transform="translate(-844.21 570) rotate(-45)"/></g><g id="Inline_T1" data-name="Inline T1"><polygon class="cls-6" points="570 108 570 570 107 570 569.5 107.5 570 108"/></g><g id="Inline_T2" data-name="Inline T2"><polygon class="cls-7" points="570 108 570 570 1033 570 570.5 107.5 570 108"/></g><g id="Inline_T3" data-name="Inline T3"><polygon class="cls-5" points="570 1032 570 570 1033 570 570.5 1032.5 570 1032"/></g><g id="Inline_T4" data-name="Inline T4"><polygon class="cls-8" points="570 1032 570 570 107 570 569.5 1032.5 570 1032"/></g></g><g id="Logo"><path class="cls-10" d="M919.93,778.91a182.43,182.43,0,0,1,26.73-1.18c70.51,2.55,132.29,44.44,166.59,82.82v189.67l-12,1.35c-36.07,4.12-61,15.59-74.23,34.12-14.58,20.48-10.7,44.49-9.16,51.38,5.1,22.87-8.38,46.15-31.48,50.6a197.58,197.58,0,0,1-66.49,1.7c-102-13.61-180.76-100.39-179.92-206C740.93,871,831.68,788.6,919.93,778.91Z" transform="translate(-430 -430)"/><path class="cls-11" d="M898.79,936.34a41.32,41.32,0,1,0-58.43,0v0a41.42,41.42,0,0,0,58.43,0Z" transform="translate(-430 -430)"/><path class="cls-12" d="M1015.87,889.27a41.3,41.3,0,1,0-50.59,29.22,41.27,41.27,0,0,0,50.59-29.22Z" transform="translate(-430 -430)"/><path class="cls-13" d="M1064.56,996.39A41.3,41.3,0,1,0,1014,967.18,41.34,41.34,0,0,0,1064.56,996.39Z" transform="translate(-430 -430)"/><path class="cls-14" d="M851.75,1053.4a41.3,41.3,0,1,0-50.58-29.2,41.25,41.25,0,0,0,50.58,29.2Z" transform="translate(-430 -430)"/><path class="cls-15" d="M1126.47,750c34.14,0,41.3,128.22,41.3,235,0,4.8-.06,9.2-.09,13.77l-29.16,13.77H1107l-21.71-13.77c0-4.57-.09-8.89-.09-13.77C1085.16,878.22,1092.33,750,1126.47,750Z" transform="translate(-430 -430)"/><path class="cls-16" d="M1085.25,998.77c0-4.57-.09-8.89-.09-13.77,0-106.78,7.17-235,41.31-235v262.54H1107Z" transform="translate(-430 -430)"/><path class="cls-17" d="M1126.47,998.77h41.21c-.5,60.89-4,100.89-4.18,104.57h-74.07c-.36-6.72-3.73-41-4.18-104.57Z" transform="translate(-430 -430)"/><path class="cls-18" d="M1085.25,998.77h41.22v104.57h-37C1089.07,1096.62,1085.7,1062.3,1085.25,998.77Z" transform="translate(-430 -430)"/><path class="cls-19" d="M1126.47,1081.39a55.13,55.13,0,0,1,55.07,55.07V1164c0,15.18,13.28,28.46,28.46,28.46V1220h-56a81.49,81.49,0,0,1-27.53-5.08,83.67,83.67,0,0,1-55.08-78.46,55.13,55.13,0,0,1,55.08-55.07Z" transform="translate(-430 -430)"/><path d="M1071.39,1136.46a55.13,55.13,0,0,1,55.08-55.07v133.53a83.67,83.67,0,0,1-55.08-78.46Z" transform="translate(-430 -430)"/><circle class="cls-20" cx="489.93" cy="665.15" r="41.31"/></g></svg>
